<?xml version="1.0" encoding="UTF-8" standalone="no"?>
<!DOCTYPE svg PUBLIC "-//W3C//DTD SVG 1.1//EN"
 "http://www.w3.org/Graphics/SVG/1.1/DTD/svg11.dtd">
<!-- Generated by graphviz version 2.38.0 (20140413.2041)
 -->
<!-- Title: G Pages: 1 -->
<svg width="638pt" height="1206pt"
 viewBox="0.00 0.00 638.27 1206.00" xmlns="http://www.w3.org/2000/svg" xmlns:xlink="http://www.w3.org/1999/xlink">
<g id="graph0" class="graph" transform="scale(1 1) rotate(0) translate(4 1202)">
<title>G</title>
<polygon fill="white" stroke="none" points="-4,4 -4,-1202 634.266,-1202 634.266,4 -4,4"/>
<g id="clust1" class="cluster"><title>cluster_Global</title>
<path fill="none" stroke="gray" d="M157.883,-98C157.883,-98 610.266,-98 610.266,-98 616.266,-98 622.266,-104 622.266,-110 622.266,-110 622.266,-1178 622.266,-1178 622.266,-1184 616.266,-1190 610.266,-1190 610.266,-1190 157.883,-1190 157.883,-1190 151.883,-1190 145.883,-1184 145.883,-1178 145.883,-1178 145.883,-110 145.883,-110 145.883,-104 151.883,-98 157.883,-98"/>
<text text-anchor="middle" x="384.074" y="-1177.2" font-family="Times New Roman,serif" font-size="11.00" fill="gray">Global</text>
</g>
<g id="clust2" class="cluster"><title>cluster_\classes</title>
<path fill="none" stroke="gray" d="M463.266,-544C463.266,-544 602.266,-544 602.266,-544 608.266,-544 614.266,-550 614.266,-556 614.266,-556 614.266,-1150 614.266,-1150 614.266,-1156 608.266,-1162 602.266,-1162 602.266,-1162 463.266,-1162 463.266,-1162 457.266,-1162 451.266,-1156 451.266,-1150 451.266,-1150 451.266,-556 451.266,-556 451.266,-550 457.266,-544 463.266,-544"/>
<text text-anchor="middle" x="532.766" y="-1149.2" font-family="Times New Roman,serif" font-size="11.00" fill="gray">classes</text>
</g>
<g id="clust3" class="cluster"><title>cluster_\classes\util</title>
<path fill="none" stroke="gray" d="M508.266,-1008C508.266,-1008 557.266,-1008 557.266,-1008 563.266,-1008 569.266,-1014 569.266,-1020 569.266,-1020 569.266,-1122 569.266,-1122 569.266,-1128 563.266,-1134 557.266,-1134 557.266,-1134 508.266,-1134 508.266,-1134 502.266,-1134 496.266,-1128 496.266,-1122 496.266,-1122 496.266,-1020 496.266,-1020 496.266,-1014 502.266,-1008 508.266,-1008"/>
<text text-anchor="middle" x="532.766" y="-1121.2" font-family="Times New Roman,serif" font-size="11.00" fill="gray">util</text>
</g>
<g id="clust4" class="cluster"><title>cluster_\classes\entity</title>
<path fill="none" stroke="gray" d="M501.266,-874C501.266,-874 564.266,-874 564.266,-874 570.266,-874 576.266,-880 576.266,-886 576.266,-886 576.266,-988 576.266,-988 576.266,-994 570.266,-1000 564.266,-1000 564.266,-1000 501.266,-1000 501.266,-1000 495.266,-1000 489.266,-994 489.266,-988 489.266,-988 489.266,-886 489.266,-886 489.266,-880 495.266,-874 501.266,-874"/>
<text text-anchor="middle" x="532.766" y="-987.2" font-family="Times New Roman,serif" font-size="11.00" fill="gray">entity</text>
</g>
<g id="clust5" class="cluster"><title>cluster_\classes\data</title>
<path fill="none" stroke="gray" d="M471.266,-740C471.266,-740 594.266,-740 594.266,-740 600.266,-740 606.266,-746 606.266,-752 606.266,-752 606.266,-854 606.266,-854 606.266,-860 600.266,-866 594.266,-866 594.266,-866 471.266,-866 471.266,-866 465.266,-866 459.266,-860 459.266,-854 459.266,-854 459.266,-752 459.266,-752 459.266,-746 465.266,-740 471.266,-740"/>
<text text-anchor="middle" x="532.766" y="-853.2" font-family="Times New Roman,serif" font-size="11.00" fill="gray">data</text>
</g>
<g id="clust6" class="cluster"><title>cluster_\classes\business</title>
<path fill="none" stroke="gray" d="M477.766,-552C477.766,-552 587.766,-552 587.766,-552 593.766,-552 599.766,-558 599.766,-564 599.766,-564 599.766,-720 599.766,-720 599.766,-726 593.766,-732 587.766,-732 587.766,-732 477.766,-732 477.766,-732 471.766,-732 465.766,-726 465.766,-720 465.766,-720 465.766,-564 465.766,-564 465.766,-558 471.766,-552 477.766,-552"/>
<text text-anchor="middle" x="532.766" y="-719.2" font-family="Times New Roman,serif" font-size="11.00" fill="gray">business</text>
</g>
<g id="clust7" class="cluster"><title>cluster_\League</title>
<path fill="none" stroke="gray" d="M484.266,-204C484.266,-204 581.266,-204 581.266,-204 587.266,-204 593.266,-210 593.266,-216 593.266,-216 593.266,-372 593.266,-372 593.266,-378 587.266,-384 581.266,-384 581.266,-384 484.266,-384 484.266,-384 478.266,-384 472.266,-378 472.266,-372 472.266,-372 472.266,-216 472.266,-216 472.266,-210 478.266,-204 484.266,-204"/>
<text text-anchor="middle" x="532.766" y="-371.2" font-family="Times New Roman,serif" font-size="11.00" fill="gray">League</text>
</g>
<g id="clust8" class="cluster"><title>cluster_\League\OAuth2</title>
<path fill="none" stroke="gray" d="M492.266,-212C492.266,-212 573.266,-212 573.266,-212 579.266,-212 585.266,-218 585.266,-224 585.266,-224 585.266,-344 585.266,-344 585.266,-350 579.266,-356 573.266,-356 573.266,-356 492.266,-356 492.266,-356 486.266,-356 480.266,-350 480.266,-344 480.266,-344 480.266,-224 480.266,-224 480.266,-218 486.266,-212 492.266,-212"/>
<text text-anchor="middle" x="532.766" y="-343.2" font-family="Times New Roman,serif" font-size="11.00" fill="gray">OAuth2</text>
</g>
<g id="clust9" class="cluster"><title>cluster_\League\OAuth2\Client</title>
<path fill="none" stroke="gray" d="M500.266,-220C500.266,-220 565.266,-220 565.266,-220 571.266,-220 577.266,-226 577.266,-232 577.266,-232 577.266,-316 577.266,-316 577.266,-322 571.266,-328 565.266,-328 565.266,-328 500.266,-328 500.266,-328 494.266,-328 488.266,-322 488.266,-316 488.266,-316 488.266,-232 488.266,-232 488.266,-226 494.266,-220 500.266,-220"/>
<text text-anchor="middle" x="532.766" y="-315.2" font-family="Times New Roman,serif" font-size="11.00" fill="gray">Client</text>
</g>
<g id="clust10" class="cluster"><title>cluster_\League\OAuth2\Client\Provider</title>
<path fill="none" stroke="gray" d="M508.266,-228C508.266,-228 557.266,-228 557.266,-228 563.266,-228 569.266,-234 569.266,-240 569.266,-240 569.266,-288 569.266,-288 569.266,-294 563.266,-300 557.266,-300 557.266,-300 508.266,-300 508.266,-300 502.266,-300 496.266,-294 496.266,-288 496.266,-288 496.266,-240 496.266,-240 496.266,-234 502.266,-228 508.266,-228"/>
<text text-anchor="middle" x="532.766" y="-287.2" font-family="Times New Roman,serif" font-size="11.00" fill="gray">Provider</text>
</g>
<!-- \\classes\\util\\Config -->
<g id="node1" class="node"><title>\\classes\\util\\Config</title>
<polygon fill="none" stroke="black" points="561.266,-1106 504.266,-1106 504.266,-1070 561.266,-1070 561.266,-1106"/>
<text text-anchor="middle" x="532.766" y="-1085.2" font-family="Courier,monospace" font-size="11.00">Config</text>
</g>
<!-- \\classes\\util\\DBUtil -->
<g id="node2" class="node"><title>\\classes\\util\\DBUtil</title>
<polygon fill="none" stroke="black" points="561.266,-1052 504.266,-1052 504.266,-1016 561.266,-1016 561.266,-1052"/>
<text text-anchor="middle" x="532.766" y="-1031.2" font-family="Courier,monospace" font-size="11.00">DBUtil</text>
</g>
<!-- \\classes\\entity\\User -->
<g id="node3" class="node"><title>\\classes\\entity\\User</title>
<polygon fill="none" stroke="black" points="559.766,-972 505.766,-972 505.766,-936 559.766,-936 559.766,-972"/>
<text text-anchor="middle" x="532.766" y="-951.2" font-family="Courier,monospace" font-size="11.00">User</text>
</g>
<!-- \\classes\\entity\\Feedback -->
<g id="node4" class="node"><title>\\classes\\entity\\Feedback</title>
<polygon fill="none" stroke="black" points="568.266,-918 497.266,-918 497.266,-882 568.266,-882 568.266,-918"/>
<text text-anchor="middle" x="532.766" y="-897.2" font-family="Courier,monospace" font-size="11.00">Feedback</text>
</g>
<!-- \\classes\\data\\UserManagerDB -->
<g id="node5" class="node"><title>\\classes\\data\\UserManagerDB</title>
<polygon fill="none" stroke="black" points="584.766,-838 480.766,-838 480.766,-802 584.766,-802 584.766,-838"/>
<text text-anchor="middle" x="532.766" y="-817.2" font-family="Courier,monospace" font-size="11.00">UserManagerDB</text>
</g>
<!-- \\classes\\data\\FeedbackManagerDB -->
<g id="node6" class="node"><title>\\classes\\data\\FeedbackManagerDB</title>
<polygon fill="none" stroke="black" points="598.266,-784 467.266,-784 467.266,-748 598.266,-748 598.266,-784"/>
<text text-anchor="middle" x="532.766" y="-763.2" font-family="Courier,monospace" font-size="11.00">FeedbackManagerDB</text>
</g>
<!-- \\classes\\business\\UserManager -->
<g id="node7" class="node"><title>\\classes\\business\\UserManager</title>
<polygon fill="none" stroke="black" points="578.266,-704 487.266,-704 487.266,-668 578.266,-668 578.266,-704"/>
<text text-anchor="middle" x="532.766" y="-683.2" font-family="Courier,monospace" font-size="11.00">UserManager</text>
</g>
<!-- \\classes\\business\\Validation -->
<g id="node8" class="node"><title>\\classes\\business\\Validation</title>
<polygon fill="none" stroke="black" points="574.766,-650 490.766,-650 490.766,-614 574.766,-614 574.766,-650"/>
<text text-anchor="middle" x="532.766" y="-629.2" font-family="Courier,monospace" font-size="11.00">Validation</text>
</g>
<!-- \\classes\\business\\FeedbackManager -->
<g id="node9" class="node"><title>\\classes\\business\\FeedbackManager</title>
<polygon fill="none" stroke="black" points="591.766,-596 473.766,-596 473.766,-560 591.766,-560 591.766,-596"/>
<text text-anchor="middle" x="532.766" y="-575.2" font-family="Courier,monospace" font-size="11.00">FeedbackManager</text>
</g>
<!-- \\League\\OAuth2\\Client\\Provider\\Google -->
<g id="node10" class="node"><title>\\League\\OAuth2\\Client\\Provider\\Google</title>
<polygon fill="none" stroke="black" points="561.266,-272 504.266,-272 504.266,-236 561.266,-236 561.266,-272"/>
<text text-anchor="middle" x="532.766" y="-251.2" font-family="Courier,monospace" font-size="11.00">Google</text>
</g>
<!-- \\League\\OAuth2\\Client\\Provider\\AbstractProvider -->
<g id="node17" class="node"><title>\\League\\OAuth2\\Client\\Provider\\AbstractProvider</title>
<ellipse fill="none" stroke="black" cx="192.383" cy="-72" rx="192.266" ry="18"/>
<text text-anchor="middle" x="192.383" y="-68.3" font-family="Times New Roman,serif" font-size="14.00" fill="gray">\League\OAuth2\Client\Provider\AbstractProvider</text>
</g>
<!-- \\League\\OAuth2\\Client\\Provider\\Google&#45;&gt;\\League\\OAuth2\\Client\\Provider\\AbstractProvider -->
<g id="edge2" class="edge"><title>\\League\\OAuth2\\Client\\Provider\\Google&#45;&gt;\\League\\OAuth2\\Client\\Provider\\AbstractProvider</title>
<path fill="none" stroke="black" d="M504.129,-252.183C487.224,-249.785 466.075,-244.329 451.266,-232 398.942,-188.439 440.252,-133.453 384.766,-94 380.166,-90.7295 375.341,-87.7945 370.341,-85.1651"/>
<polygon fill="none" stroke="black" points="371.691,-81.9308 361.162,-80.7557 368.66,-88.2406 371.691,-81.9308"/>
</g>
<!-- \\SMTP -->
<g id="node11" class="node"><title>\\SMTP</title>
<polygon fill="none" stroke="black" points="559.766,-482 505.766,-482 505.766,-446 559.766,-446 559.766,-482"/>
<text text-anchor="middle" x="532.766" y="-461.2" font-family="Courier,monospace" font-size="11.00">SMTP</text>
</g>
<!-- \\PHPMailerOAuthGoogle -->
<g id="node12" class="node"><title>\\PHPMailerOAuthGoogle</title>
<polygon fill="none" stroke="black" points="608.766,-428 456.766,-428 456.766,-392 608.766,-392 608.766,-428"/>
<text text-anchor="middle" x="532.766" y="-407.2" font-family="Courier,monospace" font-size="11.00">PHPMailerOAuthGoogle</text>
</g>
<!-- \\PHPMailerOAuth -->
<g id="node13" class="node"><title>\\PHPMailerOAuth</title>
<polygon fill="none" stroke="black" points="588.266,-536 477.266,-536 477.266,-500 588.266,-500 588.266,-536"/>
<text text-anchor="middle" x="532.766" y="-515.2" font-family="Courier,monospace" font-size="11.00">PHPMailerOAuth</text>
</g>
<!-- \\PHPMailer -->
<g id="node14" class="node"><title>\\PHPMailer</title>
<polygon fill="none" stroke="black" points="230.883,-536 153.883,-536 153.883,-500 230.883,-500 230.883,-536"/>
<text text-anchor="middle" x="192.383" y="-515.2" font-family="Courier,monospace" font-size="11.00">PHPMailer</text>
</g>
<!-- \\PHPMailerOAuth&#45;&gt;\\PHPMailer -->
<g id="edge1" class="edge"><title>\\PHPMailerOAuth&#45;&gt;\\PHPMailer</title>
<path fill="none" stroke="black" d="M477.023,-518C411.776,-518 303.78,-518 241.569,-518"/>
<polygon fill="none" stroke="black" points="241.249,-514.5 231.249,-518 241.249,-521.5 241.249,-514.5"/>
</g>
<!-- \\phpmailerException -->
<g id="node15" class="node"><title>\\phpmailerException</title>
<polygon fill="none" stroke="black" points="601.766,-196 463.766,-196 463.766,-160 601.766,-160 601.766,-196"/>
<text text-anchor="middle" x="532.766" y="-175.2" font-family="Courier,monospace" font-size="11.00">phpmailerException</text>
</g>
<!-- \\Exception -->
<g id="node18" class="node"><title>\\Exception</title>
<ellipse fill="none" stroke="black" cx="192.383" cy="-18" rx="50.0912" ry="18"/>
<text text-anchor="middle" x="192.383" y="-14.3" font-family="Times New Roman,serif" font-size="14.00" fill="gray">\Exception</text>
</g>
<!-- \\phpmailerException&#45;&gt;\\Exception -->
<g id="edge3" class="edge"><title>\\phpmailerException&#45;&gt;\\Exception</title>
<path fill="none" stroke="black" d="M465.232,-159.937C460.279,-157.337 455.551,-154.374 451.266,-151 407.572,-116.592 431.427,-75.2605 384.766,-45 345.4,-19.4705 291.94,-13.7745 251.528,-13.8621"/>
<polygon fill="none" stroke="black" points="251.238,-10.3658 241.289,-14.0072 251.338,-17.3651 251.238,-10.3658"/>
</g>
<!-- \\POP3 -->
<g id="node16" class="node"><title>\\POP3</title>
<polygon fill="none" stroke="black" points="559.766,-142 505.766,-142 505.766,-106 559.766,-106 559.766,-142"/>
<text text-anchor="middle" x="532.766" y="-121.2" font-family="Courier,monospace" font-size="11.00">POP3</text>
</g>
</g>
</svg>
